<?xml version="1.0" encoding="UTF-8"?> <svg xmlns="http://www.w3.org/2000/svg" width="1161" height="614" viewBox="0 0 1161 614" fill="none"><path fill-rule="evenodd" clip-rule="evenodd" d="M50 85C22.3858 85 0 107.386 0 135V564C0 591.614 22.3858 614 50 614H348.015C365.556 614 380 582.041 380 564.5V564.5C380 531.639 406.639 505 439.5 505H720.5C753.361 505 780 531.639 780 564.5V564.5C780 582.041 794.444 614 811.985 614H1111C1138.61 614 1161 591.614 1161 564V135C1161 107.386 1138.61 85 1111 85H985C957.386 85 935 62.1142 935 34.5V34.5C935 20.0483 925.078 0 910.626 0H247.374C232.922 0 223 20.0483 223 34.5V34.5C223 62.1142 200.614 85 173 85H50Z" fill="url(#paint0_radial_11_652)"></path><defs><radialGradient id="paint0_radial_11_652" cx="0" cy="0" r="1" gradientUnits="userSpaceOnUse" gradientTransform="translate(580.5 307) rotate(90.0608) scale(471.5 891.55)"><stop stop-color="#55E2AF"></stop><stop offset="1" stop-color="#002A6A"></stop></radialGradient></defs></svg> 