<?xml version="1.0" encoding="UTF-8"?> <svg xmlns="http://www.w3.org/2000/svg" width="188" height="21" viewBox="0 0 188 21" fill="none"><path d="M32.1326 2.2832H36.2434V8.78895H43.2816V2.2832H47.3925V19.103H43.2816V12.2799H36.2434V19.103H32.1326V2.2832Z" fill="white"></path><path d="M58.6149 19.4837C57.4938 19.4837 56.4246 19.3145 55.4071 18.976C54.4105 18.6163 53.5386 18.0874 52.7912 17.3892C52.0438 16.6699 51.4519 15.7707 51.016 14.6917C50.58 13.5915 50.3621 12.3115 50.3621 10.8517V10.217C50.3621 8.82065 50.5697 7.60411 50.9848 6.56744C51.4001 5.53075 51.9711 4.67388 52.6977 3.99687C53.4245 3.2987 54.2652 2.78034 55.2203 2.44185C56.1754 2.08216 57.203 1.90234 58.3034 1.90234C60.8987 1.90234 62.871 2.60052 64.2206 3.99687C65.5702 5.39323 66.2449 7.41372 66.2449 10.0583V11.8355H54.5664C54.587 12.576 54.7117 13.2213 54.94 13.7714C55.1683 14.3003 55.4695 14.734 55.8431 15.0725C56.2169 15.411 56.6426 15.6649 57.12 15.8342C57.6183 15.9823 58.1166 16.0563 58.6149 16.0563C59.6738 16.0563 60.4731 15.8976 61.0128 15.5803C61.5526 15.2629 61.9368 14.7975 62.1651 14.1839H65.9334C65.6013 15.9399 64.7812 17.2623 63.4731 18.1508C62.1651 19.0394 60.5457 19.4837 58.6149 19.4837ZM58.4592 5.32976C57.9816 5.32976 57.5041 5.39323 57.0267 5.52016C56.5699 5.64711 56.1649 5.8481 55.8119 6.12315C55.4592 6.39817 55.1683 6.76843 54.94 7.23388C54.7117 7.69932 54.587 8.26 54.5664 8.91585H62.2586C62.2377 8.21768 62.1236 7.63586 61.9159 7.17041C61.7291 6.70495 61.4593 6.33471 61.1064 6.05966C60.774 5.78463 60.3795 5.59422 59.923 5.48843C59.4662 5.38265 58.9782 5.32976 58.4592 5.32976Z" fill="white"></path><path d="M72.9193 5.77411H67.6562V2.2832H82.2932V5.77411H77.0301V19.103H72.9193V5.77411Z" fill="white"></path><path d="M91.9476 19.4837C90.8264 19.4837 89.7571 19.3145 88.7399 18.976C87.7433 18.6163 86.8714 18.0768 86.124 17.3575C85.3765 16.6381 84.7847 15.7389 84.3488 14.66C83.9128 13.581 83.6948 12.3115 83.6948 10.8517V10.217C83.6948 8.84179 83.9128 7.63586 84.3488 6.59916C84.7847 5.56247 85.3765 4.69505 86.124 3.99687C86.8714 3.2987 87.7433 2.78034 88.7399 2.44185C89.7571 2.08216 90.8264 1.90234 91.9476 1.90234C93.0687 1.90234 94.1276 2.08216 95.1242 2.44185C96.1208 2.78034 96.9927 3.2987 97.7401 3.99687C98.5085 4.69505 99.1103 5.56247 99.5465 6.59916C99.9825 7.63586 100.2 8.84179 100.2 10.217V10.8517C100.2 12.2904 99.9825 13.5492 99.5465 14.6282C99.1103 15.7072 98.5085 16.6064 97.7401 17.3257C96.9927 18.0451 96.1208 18.5846 95.1242 18.9442C94.1276 19.3039 93.0687 19.4837 91.9476 19.4837ZM91.9476 15.9294C93.1102 15.9294 94.0756 15.5062 94.8439 14.66C95.6328 13.8137 96.0273 12.5443 96.0273 10.8517V10.217C96.0273 8.67255 95.6328 7.49833 94.8439 6.69437C94.0756 5.86927 93.1102 5.45669 91.9476 5.45669C90.7643 5.45669 89.7883 5.86927 89.0202 6.69437C88.2519 7.49833 87.868 8.67255 87.868 10.217V10.8517C87.868 12.5654 88.2519 13.8454 89.0202 14.6917C89.7883 15.5168 90.7643 15.9294 91.9476 15.9294Z" fill="white"></path><path d="M102.998 19.4838C102.832 19.4838 102.625 19.4732 102.375 19.452C102.126 19.452 101.919 19.4309 101.752 19.3886V15.6121C101.856 15.6332 102.012 15.6438 102.22 15.6438C102.614 15.6438 102.957 15.5274 103.247 15.2947C103.538 15.0408 103.777 14.6177 103.964 14.0253C104.171 13.4329 104.317 12.6501 104.4 11.6769C104.503 10.6825 104.555 9.45541 104.555 7.99557V2.2832H117.635V19.103H113.525V5.77411H108.355V8.63028C108.355 10.8094 108.241 12.6078 108.012 14.0253C107.805 15.4217 107.472 16.5218 107.016 17.3258C106.58 18.1297 106.019 18.6904 105.334 19.0077C104.67 19.3251 103.891 19.4838 102.998 19.4838Z" fill="white"></path><path d="M128.839 19.4837C127.717 19.4837 126.648 19.3145 125.631 18.976C124.634 18.6163 123.762 18.0768 123.015 17.3575C122.267 16.6381 121.676 15.7389 121.24 14.66C120.803 13.581 120.585 12.3115 120.585 10.8517V10.217C120.585 8.84179 120.803 7.63586 121.24 6.59916C121.676 5.56247 122.267 4.69505 123.015 3.99687C123.762 3.2987 124.634 2.78034 125.631 2.44185C126.648 2.08216 127.717 1.90234 128.839 1.90234C129.96 1.90234 131.019 2.08216 132.015 2.44185C133.011 2.78034 133.884 3.2987 134.631 3.99687C135.399 4.69505 136.001 5.56247 136.437 6.59916C136.873 7.63586 137.091 8.84179 137.091 10.217V10.8517C137.091 12.2904 136.873 13.5492 136.437 14.6282C136.001 15.7072 135.399 16.6064 134.631 17.3257C133.884 18.0451 133.011 18.5846 132.015 18.9442C131.019 19.3039 129.96 19.4837 128.839 19.4837ZM128.839 15.9294C130.001 15.9294 130.966 15.5062 131.735 14.66C132.524 13.8137 132.918 12.5443 132.918 10.8517V10.217C132.918 8.67255 132.524 7.49833 131.735 6.69437C130.966 5.86927 130.001 5.45669 128.839 5.45669C127.655 5.45669 126.679 5.86927 125.911 6.69437C125.143 7.49833 124.759 8.67255 124.759 10.217V10.8517C124.759 12.5654 125.143 13.8454 125.911 14.6917C126.679 15.5168 127.655 15.9294 128.839 15.9294Z" fill="white"></path><path d="M140.349 2.2832H152.183V5.77411H144.46V19.103H140.349V2.2832Z" fill="white"></path><path d="M154.666 2.2832H158.777V13.0732L166.127 2.2832H169.926V19.103H165.815V8.31294L158.466 19.103H154.666V2.2832Z" fill="white"></path><path d="M177.006 12.7876C175.74 12.3645 174.816 11.7298 174.235 10.8835C173.653 10.0372 173.363 9.04283 173.363 7.90036C173.363 7.07526 173.498 6.32419 173.768 5.64716C174.058 4.94898 174.484 4.35659 175.044 3.86997C175.605 3.36221 176.311 2.97081 177.162 2.69578C178.034 2.42073 179.051 2.2832 180.214 2.2832H188V19.103H183.889V13.2954H180.93L177.349 19.103H172.74L177.006 12.7876ZM177.474 7.90036C177.474 8.61971 177.702 9.14864 178.159 9.48713C178.636 9.82564 179.27 9.99492 180.059 9.99492H183.889V5.77411H180.059C179.27 5.77411 178.636 5.95393 178.159 6.31359C177.702 6.65211 177.474 7.18104 177.474 7.90036Z" fill="white"></path><path fill-rule="evenodd" clip-rule="evenodd" d="M5.31366 11.0044C5.18242 10.9937 5.04974 10.9883 4.91582 10.9883C2.20089 10.9883 0 13.2295 0 15.9941C0 18.7587 2.20089 20.9999 4.91582 20.9999C7.63074 20.9999 9.83163 18.7587 9.83163 15.9941C9.83163 15.7819 9.81866 15.5728 9.79348 15.3675C7.4688 15.1779 5.60024 13.3414 5.31366 11.0044Z" fill="white"></path><path fill-rule="evenodd" clip-rule="evenodd" d="M9.83163 5.00581C9.83163 2.24119 7.63074 0 4.91582 0C2.20089 0 2.69722e-07 2.24119 0 5.00581C-4.88375e-07 7.77044 2.20089 10.0116 4.91582 10.0116C5.04154 10.0116 5.16616 10.0068 5.28949 9.99739C5.47118 7.53612 7.40063 5.57135 9.81765 5.38633C9.82691 5.26074 9.83163 5.13384 9.83163 5.00581Z" fill="white"></path><path fill-rule="evenodd" clip-rule="evenodd" d="M15.0915 9.97278C15.2931 9.99842 15.4984 10.0116 15.7068 10.0116C18.4218 10.0116 20.6226 7.77044 20.6226 5.00581C20.6226 2.24119 18.4218 0 15.7068 0C12.9919 0 10.791 2.24119 10.791 5.00581C10.791 5.14219 10.7964 5.2773 10.8069 5.41094C13.1018 5.70277 14.9053 7.60554 15.0915 9.97278Z" fill="white"></path><path fill-rule="evenodd" clip-rule="evenodd" d="M10.8324 15.3415C10.8051 15.5551 10.791 15.7729 10.791 15.9941C10.791 18.7587 12.9919 20.9999 15.7068 20.9999C18.4218 20.9999 20.6226 18.7587 20.6226 15.9941C20.6226 13.2295 18.4218 10.9883 15.7068 10.9883C15.4896 10.9883 15.2757 11.0026 15.066 11.0304C14.7792 13.2731 13.0348 15.0495 10.8324 15.3415Z" fill="white"></path></svg> 