<?xml version="1.0" encoding="UTF-8"?> <svg xmlns="http://www.w3.org/2000/svg" width="60" height="60" viewBox="0 0 60 60" fill="none"> <path fill-rule="evenodd" clip-rule="evenodd" d="M15.4596 31.4413C15.0779 31.4107 14.692 31.3951 14.3024 31.3951C6.40341 31.3951 2.20566e-06 37.7985 0 45.6975C0 53.5965 6.4034 59.9999 14.3024 59.9999C22.2014 59.9999 28.6048 53.5965 28.6048 45.6975C28.6048 45.0911 28.5671 44.4935 28.4938 43.907C21.7301 43.3654 16.2935 38.1183 15.4596 31.4413Z" fill="black"></path> <path fill-rule="evenodd" clip-rule="evenodd" d="M28.6048 14.3024C28.6048 6.4034 22.2014 7.84756e-07 14.3024 0C6.40341 -7.84741e-07 2.20566e-06 6.4034 0 14.3024C0 22.2014 6.4034 28.6048 14.3024 28.6048C14.6681 28.6048 15.0306 28.5911 15.3893 28.5641C15.918 21.5319 21.5318 15.9183 28.5641 15.3899C28.5911 15.0309 28.6048 14.6683 28.6048 14.3024Z" fill="black"></path> <path fill-rule="evenodd" clip-rule="evenodd" d="M43.9084 28.4938C44.4949 28.5671 45.0925 28.6048 45.6989 28.6048C53.5979 28.6048 60.0013 22.2014 60.0013 14.3024C60.0013 6.40341 53.5979 2.67127e-06 45.6989 0C37.7999 -1.4753e-06 31.3965 6.4034 31.3965 14.3024C31.3965 14.6921 31.4121 15.0782 31.4427 15.46C38.1196 16.2939 43.3667 21.7303 43.9084 28.4938Z" fill="black"></path> <path fill-rule="evenodd" clip-rule="evenodd" d="M31.5169 43.8331C31.4375 44.4433 31.3965 45.0656 31.3965 45.6975C31.3965 53.5965 37.7999 59.9999 45.6989 59.9999C53.5979 59.9999 60.0013 53.5965 60.0013 45.6975C60.0013 37.7985 53.5979 31.3951 45.6989 31.3951C45.0669 31.3951 44.4445 31.4361 43.8341 31.5156C42.9999 37.9233 37.9246 42.9987 31.5169 43.8331Z" fill="black"></path> </svg> 